<svg xmlns="http://www.w3.org/2000/svg" xmlns:xlink="http://www.w3.org/1999/xlink" version="1.1" x="0px" y="0px" viewBox="0 0 1024 1280" style="enable-background:new 0 0 1024 1024;" xml:space="preserve"><g><g><g><path d="M879.5,527.4c0,27.7,0,55.3,0,83c0,41.8,0,83.6,0,125.4c0,13.9,0.4,27.8-1.4,41.6c0.4-2.7,0.7-5.3,1.1-8     c-1.9,13.4-5.4,26.3-10.6,38.8c1-2.4,2-4.8,3-7.2c-3.8,8.9-8.4,17.4-13.7,25.4c-1.3,2-2.7,3.9-4.1,5.9c-3.1,4.3,1.9-1.9,1.9-2.4     c0,0.5-2.2,2.7-2.5,3c-3.1,3.7-6.3,7.2-9.7,10.6c-3.4,3.4-6.9,6.6-10.6,9.7c-0.8,0.7-1.7,1.4-2.5,2.1c-2.7,2.2,6.2-4.6,2.4-1.9     c-2.1,1.5-4.2,3.1-6.4,4.5c-8,5.4-16.5,9.9-25.4,13.7c2.4-1,4.8-2,7.2-3c-12.4,5.2-25.4,8.7-38.8,10.6c2.7-0.4,5.3-0.7,8-1.1     c-20.9,2.7-42.7,1.4-63.7,1.4c-39.9,0-79.7,0-119.6,0c-48.9,0-97.9,0-146.8,0c-41.7,0-83.5,0-125.2,0c-18.2,0-36.4,0.1-54.5,0     c-7,0-13.9-0.5-20.8-1.4c2.7,0.4,5.3,0.7,8,1.1c-13.4-1.9-26.3-5.4-38.8-10.6c2.4,1,4.8,2,7.2,3c-8.9-3.8-17.4-8.4-25.4-13.7     c-2-1.3-3.9-2.7-5.9-4.1c-4.3-3.1,1.9,1.9,2.4,1.9c-0.5,0-2.7-2.2-3-2.5c-3.7-3.1-7.2-6.3-10.6-9.7c-3.4-3.4-6.6-6.9-9.7-10.6     c-0.7-0.8-1.4-1.7-2.1-2.5c-2.2-2.7,4.6,6.2,1.9,2.4c-1.5-2.1-3.1-4.2-4.5-6.4c-5.4-8-9.9-16.5-13.7-25.4c1,2.4,2,4.8,3,7.2     c-5.2-12.4-8.7-25.4-10.6-38.8c0.4,2.7,0.7,5.3,1.1,8c-2.7-20.9-1.4-42.7-1.4-63.7c0-39.9,0-79.7,0-119.6c0-48.9,0-97.9,0-146.8     c0-41.7,0-83.5,0-125.2c0-18.2-0.1-36.4,0-54.5c0-7,0.5-13.9,1.4-20.8c-0.4,2.7-0.7,5.3-1.1,8c1.9-13.4,5.4-26.3,10.6-38.8     c-1,2.4-2,4.8-3,7.2c3.8-8.9,8.4-17.4,13.7-25.4c1.3-2,2.7-3.9,4.1-5.9c3.1-4.3-1.9,1.9-1.9,2.4c0-0.5,2.2-2.7,2.5-3     c3.1-3.7,6.3-7.2,9.7-10.6s6.9-6.6,10.6-9.7c0.8-0.7,1.7-1.4,2.5-2.1c2.7-2.2-6.2,4.6-2.4,1.9c2.1-1.5,4.2-3.1,6.4-4.5     c8-5.4,16.5-9.9,25.4-13.7c-2.4,1-4.8,2-7.2,3c12.4-5.2,25.4-8.7,38.8-10.6c-2.7,0.4-5.3,0.7-8,1.1c12.1-1.6,24.3-1.4,36.5-1.4     c17.7,0,35.4,0,53.1,0c43.2,0,86.5,0,129.7,0c10.2,0,20.5,0,30.7,0c15.7,0,30.7-13.8,30-30c-0.7-16.3-13.2-30-30-30     c-25.3,0-50.6,0-75.8,0c-40.9,0-81.8,0-122.7,0c-9.9,0-19.9,0-29.8,0c-29.1,0-57.3,6.9-83.3,19.7     c-61.2,30.1-100.2,95.5-100.4,163.2c-0.1,14,0,28,0,42.1c0,34.4,0,68.8,0,103.2c0,43.3,0,86.5,0,129.8c0,40.6,0,81.2,0,121.8     c0,26.4,0,52.9,0,79.3c0,4.3,0,8.6,0,13c0.1,31.9,8.4,63.6,24.3,91.2c32.4,56.4,93.9,91.5,158.7,91.7c15.5,0.1,31,0,46.5,0     c35.2,0,70.4,0,105.6,0c43.4,0,86.8,0,130.2,0c40.1,0,80.2,0,120.3,0c25.3,0,50.6,0,75.9,0c4.4,0,8.9,0.1,13.3,0     c34-0.6,68.3-10.6,96.7-29.5c51.9-34.4,83.3-92.3,83.4-154.7c0-29.7,0-59.3,0-89c0-39.4,0-78.7,0-118.1c0-7,0-13.9,0-20.9     c0-15.7-13.8-30.7-30-30C893.2,498.1,879.5,510.6,879.5,527.4L879.5,527.4z"/></g></g><g><g><path d="M687.5,144.5c25,0,50.1,0,75.1,0c39.9,0,79.7,0,119.6,0c9.1,0,18.2,0,27.3,0c15.7,0,30.7-13.8,30-30     c-0.7-16.3-13.2-30-30-30c-25,0-50.1,0-75.1,0c-39.9,0-79.7,0-119.6,0c-9.1,0-18.2,0-27.3,0c-15.7,0-30.7,13.8-30,30     C658.2,130.8,670.7,144.5,687.5,144.5L687.5,144.5z"/></g></g><g><g><path d="M939.5,336.5c0-25,0-50.1,0-75.1c0-39.9,0-79.7,0-119.6c0-9.1,0-18.2,0-27.3c0-15.7-13.8-30.7-30-30     c-16.3,0.7-30,13.2-30,30c0,25,0,50.1,0,75.1c0,39.9,0,79.7,0,119.6c0,9.1,0,18.2,0,27.3c0,15.7,13.8,30.7,30,30     C925.8,365.8,939.5,353.3,939.5,336.5L939.5,336.5z"/></g></g><g><g><path d="M534,532.4c13.2-13.2,26.5-26.5,39.7-39.7c31.5-31.5,63.1-63.1,94.6-94.6     c38.1-38.1,76.2-76.2,114.4-114.4c33.1-33.1,66.1-66.1,99.2-99.2c16-16,32.4-31.8,48.1-48.1c0.2-0.2,0.4-0.4,0.7-0.7     c11.1-11.1,11.9-31.5,0-42.4c-12-11-30.6-11.9-42.4,0c-13.2,13.2-26.5,26.5-39.7,39.7c-31.5,31.5-63.1,63.1-94.6,94.6     c-38.1,38.1-76.2,76.2-114.4,114.4c-33.1,33.1-66.1,66.1-99.2,99.2c-16,16-32.4,31.8-48.1,48.1c-0.2,0.2-0.4,0.4-0.7,0.7     c-11.1,11.1-11.9,31.5,0,42.4C503.6,543.4,522.2,544.3,534,532.4L534,532.4z"/></g></g></g></svg>